<?xml version="1.0" encoding="utf-8"?>
<!-- Generator: Adobe Illustrator 26.5.3, SVG Export Plug-In . SVG Version: 6.00 Build 0)  -->
<svg version="1.1" xmlns="http://www.w3.org/2000/svg" xmlns:xlink="http://www.w3.org/1999/xlink" x="0px" y="0px"
	 viewBox="0 0 300 100" style="enable-background:new 0 0 300 100;" xml:space="preserve">
<style type="text/css">
	.st0{display:none;fill:#FFFFFF;stroke:#000000;stroke-miterlimit:10;}
	.st1{display:none;fill:#CCCCCC;}
	.st2{display:none;opacity:0.8;fill:#FFFFFF;stroke:#CD1719;stroke-width:0.4631;stroke-miterlimit:10;}
	.st3{display:none;opacity:0.9;fill:#EDEDED;stroke:#CD1719;stroke-width:0.4556;stroke-miterlimit:10;}
	.st4{display:none;fill:#D0D0D0;stroke:#CD1719;stroke-width:0.4585;stroke-miterlimit:10;}
	.st5{display:none;}
	.st6{display:inline;fill:none;}
	.st7{display:inline;}
	.st8{fill:#1D1D1B;}
	.st9{font-family:'BarlowSemiCondensed-SemiBold';}
	.st10{font-size:11.7739px;}
	.st11{font-size:8.8304px;}
	.st12{font-family:'BarlowSemiCondensed-Regular';}
	.st13{display:none;fill:none;}
	.st14{fill:none;stroke:#1D1E1C;stroke-width:0.3645;stroke-miterlimit:10;}
	.st15{fill:#1D1E1C;}
	.st16{opacity:0.8;fill:#F5E7D3;stroke:#1D1D1B;stroke-width:0.4131;stroke-miterlimit:10;}
	.st17{fill:none;stroke:#1D1E1C;stroke-width:0.396;stroke-miterlimit:10;stroke-dasharray:0.792,0.792;}
	.st18{fill:none;stroke:#1D1E1C;stroke-width:0.4131;stroke-miterlimit:10;stroke-dasharray:0.4706,0.4706;}
	.st19{fill:#1E1E1C;}
	.st20{font-family:'BarlowSemiCondensed-LightItalic';}
	.st21{font-size:7.7381px;}
	.st22{fill:#1D1D1B;stroke:#1D1D1B;stroke-width:0.4131;stroke-miterlimit:10;}
	.st23{fill:none;stroke:#1D1D1B;stroke-width:0.4131;stroke-miterlimit:10;}
	.st24{fill:none;}
</style>
<g id="Capa_2">
</g>
<g id="Capa_1">
	<rect class="st0" width="300" height="100"/>
	<rect class="st1" width="300" height="100"/>
	<path class="st2" d="M280.2,69.6h-62c-6.5,0-11.9-5.3-11.9-11.9V32.1c0-6.5,5.3-11.9,11.9-11.9h62c6.5,0,11.9,5.3,11.9,11.9v25.6
		C292.1,64.2,286.8,69.6,280.2,69.6z"/>
	<path class="st3" d="M180.8,69.3h-62.6c-6.4,0-11.7-5.3-11.7-11.7V33.4c0-6.4,5.3-11.7,11.7-11.7h62.6c6.4,0,11.7,5.3,11.7,11.7
		v24.2C192.5,64.1,187.2,69.3,180.8,69.3z"/>
	<path class="st4" d="M81.1,69.6H17.9c-6.5,0-11.8-5.3-11.8-11.8V33.5c0-6.5,5.3-11.8,11.8-11.8h63.1c6.5,0,11.8,5.3,11.8,11.8v24.3
		C92.8,64.3,87.5,69.6,81.1,69.6z"/>
	<g class="st5">
		<rect x="-12.8" y="26.7" class="st6" width="118.9" height="43.2"/>
		<text transform="matrix(1 0 0 1 32.8555 34.9042)" class="st7"><tspan x="0" y="0" class="st8 st9 st10">Fase I</tspan><tspan x="-0.2" y="9.8" class="st8 st9 st11">Equipos</tspan><tspan x="-19.8" y="19.6" class="st8 st12 st11">Rutina de ejercicios</tspan><tspan x="-7.3" y="29.4" class="st8 st12 st11"> obligatorios</tspan></text>
	</g>
	<g class="st5">
		<rect x="93.2" y="25.1" class="st6" width="118.9" height="46.4"/>
		<text transform="matrix(1 0 0 1 137.4951 33.3163)" class="st7"><tspan x="0" y="0" class="st8 st9 st10">Fase II</tspan><tspan x="-1.8" y="9.8" class="st8 st9 st11">Individual</tspan><tspan x="-18.4" y="19.6" class="st8 st12 st11">Rutina de ejercicios</tspan><tspan x="-5.9" y="29.4" class="st8 st12 st11"> obligatorios</tspan></text>
	</g>
	<g class="st5">
		<rect x="189.8" y="24.9" class="st6" width="118.9" height="43.2"/>
		<text transform="matrix(1 0 0 1 232.6152 33.1825)" class="st7"><tspan x="0" y="0" class="st8 st9 st10">Fase III</tspan><tspan x="-0.3" y="9.8" class="st8 st9 st11">Individual</tspan><tspan x="-23" y="19.6" class="st8 st12 st11">Estilo libre, coreografía </tspan><tspan x="-2.9" y="29.4" class="st8 st12 st11">con música</tspan></text>
	</g>
	<line class="st13" x1="152.7" y1="72.8" x2="152.7" y2="88.8"/>
	<g class="st5">
		<g class="st7">
			<line class="st14" x1="193.7" y1="44.9" x2="202.5" y2="44.9"/>
			<g>
				<polygon class="st15" points="202,46.7 205.1,44.9 202,43.1 				"/>
			</g>
		</g>
	</g>
	<g class="st5">
		<g class="st7">
			<line class="st14" x1="94.1" y1="44.9" x2="102.9" y2="44.9"/>
			<g>
				<polygon class="st15" points="102.3,46.7 105.5,44.9 102.3,43.1 				"/>
			</g>
		</g>
	</g>
	<g>
		<rect x="79.2" y="26.2" class="st16" width="132.4" height="37.8"/>
		<line class="st17" x1="77.8" y1="89.9" x2="209.8" y2="89.9"/>
		<line class="st18" x1="224.4" y1="64.2" x2="224.4" y2="25.7"/>
		<g>
			<g>
				<text transform="matrix(1.1063 0 0 1 137.4355 96.5709)" class="st19 st20 st21">60 m</text>
			</g>
		</g>
		<g>
			<g>
				<text transform="matrix(1.1063 0 0 1 99.2939 60.3922)" class="st19 st20 st21">12 m</text>
			</g>
		</g>
		<g>
			<g>
				<text transform="matrix(1.1063 0 0 1 79.751 60.3932)" class="st19 st20 st21">6m</text>
			</g>
		</g>
		<g>
			<g>
				<text transform="matrix(1.1063 0 0 1 198.7168 60.3912)" class="st19 st20 st21">6 m</text>
			</g>
		</g>
		<g>
			<g>
				<text transform="matrix(1.1063 0 0 1 123.79 60.3922)" class="st19 st20 st21">12 m</text>
			</g>
		</g>
		<g>
			<g>
				<text transform="matrix(1.1063 0 0 1 149.7969 60.8385)" class="st19 st20 st21">12 m</text>
			</g>
		</g>
		<g>
			<g>
				<text transform="matrix(1.1063 0 0 1 176.6523 60.8375)" class="st19 st20 st21">12 m</text>
			</g>
		</g>
		<g>
			<g>
				<text transform="matrix(1.1063 0 0 1 90.6074 74.1295)" class="st19 st20 st21">H</text>
			</g>
		</g>
		<g>
			<g>
				<text transform="matrix(1.1063 0 0 1 116.3467 74.1295)" class="st19 st20 st21">S</text>
			</g>
		</g>
		<g>
			<g>
				<text transform="matrix(1.1063 0 0 1 143.0703 74.1295)" class="st19 st20 st21">E</text>
			</g>
		</g>
		<g>
			<g>
				<text transform="matrix(1.1063 0 0 1 168.5693 74.1295)" class="st19 st20 st21">V</text>
			</g>
		</g>
		<g>
			<g>
				<text transform="matrix(1.1063 0 0 1 194.3086 74.1295)" class="st19 st20 st21">K</text>
			</g>
		</g>
		<g>
			<g>
				<text transform="matrix(1.1063 0 0 1 216.9277 48.2789)" class="st19 st20 st21">A</text>
			</g>
		</g>
		<g>
			<g>
				<text transform="matrix(1.1063 0 0 1 69.6792 46.6588)" class="st19 st20 st21">C</text>
			</g>
		</g>
		<g>
			<g>
				<text transform="matrix(1.1063 0 0 1 90.1035 20.065)" class="st19 st20 st21">M</text>
			</g>
		</g>
		<g>
			<g>
				<text transform="matrix(1.1063 0 0 1 115.8428 20.065)" class="st19 st20 st21">R</text>
			</g>
		</g>
		<g>
			<g>
				<text transform="matrix(1.1063 0 0 1 142.5664 20.065)" class="st19 st20 st21">B</text>
			</g>
		</g>
		<g>
			<g>
				<text transform="matrix(1.1063 0 0 1 168.0664 20.066)" class="st19 st20 st21">P</text>
			</g>
		</g>
		<g>
			<g>
				<text transform="matrix(1.1063 0 0 1 193.8057 20.066)" class="st19 st20 st21">F</text>
			</g>
		</g>
		<g>
			<g>
				<text transform="matrix(1.1063 0 0 1 90.6914 48.2789)" class="st19 st20 st21">G</text>
			</g>
		</g>
		<g>
			<g>
				<text transform="matrix(1.1063 0 0 1 116.4316 48.2789)" class="st19 st20 st21">I</text>
			</g>
		</g>
		<g>
			<g>
				<text transform="matrix(1.1063 0 0 1 143.1553 48.2789)" class="st19 st20 st21">X</text>
			</g>
		</g>
		<g>
			<g>
				<text transform="matrix(1.1063 0 0 1 168.6543 48.2789)" class="st19 st20 st21">L</text>
			</g>
		</g>
		<g>
			<g>
				<text transform="matrix(1.1063 0 0 1 194.3945 48.2789)" class="st19 st20 st21">D</text>
			</g>
		</g>
		<g>
			<g>
				<text transform="matrix(1.1063 0 0 1 225.6865 47.4928)" class="st19 st20 st21">20 m</text>
			</g>
		</g>
		<line class="st22" x1="144.9" y1="22.8" x2="144.9" y2="29.6"/>
		<line class="st22" x1="118.3" y1="22.4" x2="118.3" y2="29.2"/>
		<line class="st22" x1="91.8" y1="22.8" x2="91.8" y2="29.6"/>
		<line class="st22" x1="170.6" y1="22.8" x2="170.6" y2="29.6"/>
		<line class="st22" x1="196.4" y1="22.8" x2="196.4" y2="29.6"/>
		<line class="st23" x1="207.8" y1="45.1" x2="215.4" y2="45.1"/>
		<line class="st23" x1="75.4" y1="45.1" x2="82.9" y2="45.1"/>
		<line class="st22" x1="145.6" y1="60.8" x2="145.6" y2="67.6"/>
		<line class="st22" x1="119.1" y1="60.4" x2="119.1" y2="67.2"/>
		<line class="st22" x1="92.6" y1="60.8" x2="92.6" y2="67.6"/>
		<line class="st22" x1="171.4" y1="60.8" x2="171.4" y2="67.6"/>
		<line class="st22" x1="196.4" y1="60.8" x2="196.4" y2="67.6"/>
		<path id="SVGID_x5F_1_x5F_" class="st24" d="M197.2,60.8v6.8"/>
		<text>		<textPath  xlink:href="#SVGID_x5F_1_x5F_" startOffset="0.781%">
<tspan  class="st8" style="font-family:'MyriadPro-Regular'; font-size:9.4271px;">  </tspan>		</textPath>
</text>
		
			<image style="overflow:visible;" width="534" height="322" xlink:href="3B2697C071BAEBB3.png"  transform="matrix(7.508114e-02 0 0 6.786674e-02 124.075 -1.2567)">
		</image>
		
			<image style="overflow:visible;" width="534" height="322" xlink:href="3B2697C071BAEBB1.png"  transform="matrix(7.508114e-02 0 0 6.786674e-02 124.075 73.3419)">
		</image>
		
			<image style="overflow:visible;" width="534" height="322" xlink:href="3B2697C071BAEBB7.png"  transform="matrix(7.508114e-02 0 0 6.786674e-02 43.8332 45.2633)">
		</image>
		
			<image style="overflow:visible;" width="534" height="322" xlink:href="3B2697C071BAEBB0.png"  transform="matrix(7.508114e-02 0 0 6.786674e-02 44.0273 20.5964)">
		</image>
		
			<image style="overflow:visible;" width="334" height="292" xlink:href="3B2697C071BAEBBE.png"  transform="matrix(9.124950e-02 0 0 8.248152e-02 49.1296 27.9697)">
		</image>
	</g>
</g>
</svg>
