<?xml version="1.0" encoding="utf-8"?>
<!-- Generator: Adobe Illustrator 26.5.3, SVG Export Plug-In . SVG Version: 6.00 Build 0)  -->
<svg version="1.1" xmlns="http://www.w3.org/2000/svg" xmlns:xlink="http://www.w3.org/1999/xlink" x="0px" y="0px"
	 viewBox="0 0 300 100" style="enable-background:new 0 0 300 100;" xml:space="preserve">
<style type="text/css">
	.st0{display:none;fill:#FFFFFF;stroke:#000000;stroke-miterlimit:10;}
	.st1{display:none;fill:#CCCCCC;}
	.st2{opacity:0.8;fill:#FFFFFF;stroke:#CD1719;stroke-width:0.4631;stroke-miterlimit:10;}
	.st3{opacity:0.9;fill:#EDEDED;stroke:#CD1719;stroke-width:0.4556;stroke-miterlimit:10;}
	.st4{fill:#D0D0D0;stroke:#CD1719;stroke-width:0.4585;stroke-miterlimit:10;}
	.st5{fill:none;}
	.st6{fill:#1D1D1B;}
	.st7{font-family:'BarlowSemiCondensed-SemiBold';}
	.st8{font-size:11.7739px;}
	.st9{font-size:8.8304px;}
	.st10{font-family:'BarlowSemiCondensed-Regular';}
	.st11{fill:none;stroke:#1D1E1C;stroke-width:0.3645;stroke-miterlimit:10;}
	.st12{fill:#1D1E1C;}
</style>
<g id="Capa_2">
</g>
<g id="Capa_1">
	<rect class="st0" width="300" height="100"/>
	<rect class="st1" width="300" height="100"/>
	<path class="st2" d="M280.2,69.6h-62c-6.5,0-11.9-5.3-11.9-11.9V32.1c0-6.5,5.3-11.9,11.9-11.9h62c6.5,0,11.9,5.3,11.9,11.9v25.6
		C292.1,64.2,286.8,69.6,280.2,69.6z"/>
	<path class="st3" d="M180.8,69.3h-62.6c-6.4,0-11.7-5.3-11.7-11.7V33.4c0-6.4,5.3-11.7,11.7-11.7h62.6c6.4,0,11.7,5.3,11.7,11.7
		v24.2C192.5,64.1,187.2,69.3,180.8,69.3z"/>
	<path class="st4" d="M81.1,69.6H17.9c-6.5,0-11.8-5.3-11.8-11.8V33.5c0-6.5,5.3-11.8,11.8-11.8h63.1c6.5,0,11.8,5.3,11.8,11.8v24.3
		C92.8,64.3,87.5,69.6,81.1,69.6z"/>
	<g>
		<rect x="-12.8" y="26.7" class="st5" width="118.9" height="43.2"/>
		<text transform="matrix(1 0 0 1 32.8555 34.9042)"><tspan x="0" y="0" class="st6 st7 st8">Fase I</tspan><tspan x="-0.2" y="9.8" class="st6 st7 st9">Equipos</tspan><tspan x="-19.8" y="19.6" class="st6 st10 st9">Rutina de ejercicios</tspan><tspan x="-7.3" y="29.4" class="st6 st10 st9"> obligatorios</tspan></text>
	</g>
	<g>
		<rect x="93.2" y="25.1" class="st5" width="118.9" height="46.4"/>
		<text transform="matrix(1 0 0 1 137.4951 33.3163)"><tspan x="0" y="0" class="st6 st7 st8">Fase II</tspan><tspan x="-1.8" y="9.8" class="st6 st7 st9">Individual</tspan><tspan x="-18.4" y="19.6" class="st6 st10 st9">Rutina de ejercicios</tspan><tspan x="-5.9" y="29.4" class="st6 st10 st9"> obligatorios</tspan></text>
	</g>
	<g>
		<rect x="189.8" y="24.9" class="st5" width="118.9" height="43.2"/>
		<text transform="matrix(1 0 0 1 232.6152 33.1825)"><tspan x="0" y="0" class="st6 st7 st8">Fase III</tspan><tspan x="-0.3" y="9.8" class="st6 st7 st9">Individual</tspan><tspan x="-23" y="19.6" class="st6 st10 st9">Estilo libre, coreografía </tspan><tspan x="-2.9" y="29.4" class="st6 st10 st9">con música</tspan></text>
	</g>
	<line class="st5" x1="152.7" y1="72.8" x2="152.7" y2="88.8"/>
	<g>
		<g>
			<line class="st11" x1="193.7" y1="44.9" x2="202.5" y2="44.9"/>
			<g>
				<polygon class="st12" points="202,46.7 205.1,44.9 202,43.1 				"/>
			</g>
		</g>
	</g>
	<g>
		<g>
			<line class="st11" x1="94.1" y1="44.9" x2="102.9" y2="44.9"/>
			<g>
				<polygon class="st12" points="102.3,46.7 105.5,44.9 102.3,43.1 				"/>
			</g>
		</g>
	</g>
</g>
</svg>
